
<svg width="32px" height="32px" viewBox="0 0 32 32" version="1.1" xmlns="http://www.w3.org/2000/svg" xmlns:xlink="http://www.w3.org/1999/xlink">
    <g id="Site" stroke="none" stroke-width="1" fill="none" fill-rule="evenodd" stroke-linecap="round" stroke-linejoin="round">
        <g id="Contact" transform="translate(-202.000000, -722.000000)" stroke="#0088B7" stroke-width="3.11111111">
            <g id="Form" transform="translate(173.000000, 306.000000)">
                <g id="Message" transform="translate(0.000000, 384.000000)">
                    <g id="message-circle" transform="translate(31.000000, 34.000000)">
                        <path d="M28,13.2222222 C28.0053531,15.2753499 27.5256627,17.3007093 26.6,19.1333333 C24.361492,23.6122877 19.7849672,26.4425069 14.7777778,26.4444444 C12.7246501,26.4497975 10.6992907,25.9701071 8.86666667,25.0444444 L0,28 L2.95555556,19.1333333 C2.02989288,17.3007093 1.5502025,15.2753499 1.55555556,13.2222222 C1.55749309,8.21503276 4.38771234,3.63850802 8.86666667,1.4 C10.6992907,0.474337329 12.7246501,-0.00535305899 14.7777778,6.21726249e-15 L15.5555556,6.21726249e-15 C22.2690369,0.370377297 27.6296227,5.73096312 28,12.4444444 L28,13.2222222 Z" id="Shape"></path>
                    </g>
                </g>
            </g>
        </g>
    </g>
</svg>