
<svg width="30px" height="31px" viewBox="0 0 30 31" version="1.1" xmlns="http://www.w3.org/2000/svg" xmlns:xlink="http://www.w3.org/1999/xlink">
    <g id="Site" stroke="none" stroke-width="1" fill="none" fill-rule="evenodd" stroke-linecap="round" stroke-linejoin="round">
        <g id="Contact" transform="translate(-203.000000, -595.000000)" stroke="#0088B7" stroke-width="2.66666667">
            <g id="Form" transform="translate(173.000000, 306.000000)">
                <g id="Phone" transform="translate(0.000000, 256.000000)">
                    <g id="phone" transform="translate(32.000000, 35.000000)">
                        <path d="M26.6666667,20.142 L26.6666667,24.192 C26.6697144,24.9522459 26.356064,25.6785638 25.8027705,26.1925176 C25.249477,26.7064714 24.5078186,26.960429 23.76,26.892 C19.6571118,26.440615 15.7159989,25.0210951 12.2533333,22.7475 C9.03177083,20.6747962 6.3004482,17.909332 4.25333333,14.6475 C1.99997074,11.1256254 0.597657336,7.11584265 0.16,2.943 C0.0926309471,2.18817765 0.341696011,1.43944077 0.846354373,0.879688425 C1.35101273,0.319936079 2.06479232,0.000713731822 2.81333333,2.71050543e-20 L6.81333333,2.71050543e-20 C8.15181874,-0.0133382122 9.29266779,0.980056101 9.48,2.322 C9.64883069,3.61808971 9.96193261,4.89068129 10.4133333,6.1155 C10.7796467,7.10218129 10.5453534,8.21448846 9.81333333,8.964 L8.12,10.6785 C10.018074,14.0582869 12.7819389,16.8567001 16.12,18.7785 L17.8133333,17.064 C18.5535916,16.3228297 19.6521666,16.0856077 20.6266667,16.4565 C21.8363642,16.9135432 23.0932447,17.2305589 24.3733333,17.4015 C25.7140836,17.5930114 26.7002533,18.77147 26.6666667,20.142 Z" id="Shape"></path>
                    </g>
                </g>
            </g>
        </g>
    </g>
</svg>